<svg xmlns="http://www.w3.org/2000/svg" width="13.932" height="18" viewBox="0 0 13.932 18">
  <g id="man-user" transform="translate(-0.047)">
    <path id="Path" d="M3.681,8.8c2.033,0,3.681-1.971,3.681-4.4S6.821,0,3.681,0,0,1.971,0,4.4,1.648,8.8,3.681,8.8Z" transform="translate(3.319)" fill="#fff"/>
    <path id="Path-2" data-name="Path" d="M.053.1c0-.2,0-.056,0,0Z" transform="translate(0.021 15.448)"/>
    <path id="Path-3" data-name="Path" d="M.051.135c0-.041,0-.282,0,0Z" transform="translate(13.927 15.505)"/>
    <path id="Path-4" data-name="Path" d="M13.9,6.205C13.829,1.97,13.267.764,8.968,0A2.594,2.594,0,0,1,6.953.759,2.6,2.6,0,0,1,4.937,0C.685.755.089,1.944.011,6.068,0,6.4,0,6.422,0,6.383c0,.073,0,.209,0,.445,0,0,1.023,2.031,6.952,2.031S13.9,6.828,13.9,6.828c0-.152,0-.257,0-.329A2.684,2.684,0,0,1,13.9,6.205Z" transform="translate(0.047 9.141)" fill="#fff"/>
  </g>
</svg>
