<svg id="plus-button" xmlns="http://www.w3.org/2000/svg" width="25" height="25" viewBox="0 0 25 25">
  <path id="Shape" d="M12.5,25a12.514,12.514,0,1,1,8.835-3.666A12.515,12.515,0,0,1,12.5,25Zm0-23.572A11.071,11.071,0,1,0,23.571,12.5,11.084,11.084,0,0,0,12.5,1.428Z" fill="#fdfdfd"/>
  <path id="Path" d="M10.873,1.786H.735A.825.825,0,0,1,0,.893.826.826,0,0,1,.735,0H10.873a.826.826,0,0,1,.734.893A.824.824,0,0,1,10.873,1.786Z" transform="translate(7.143 11.607)" fill="#fdfdfd"/>
  <path id="Path-2" data-name="Path" d="M.893,10.714A.809.809,0,0,1,0,10.036V.679A.809.809,0,0,1,.893,0a.808.808,0,0,1,.892.679v9.358A.806.806,0,0,1,.893,10.714Z" transform="translate(11.607 7.143)" fill="#fdfdfd"/>
</svg>
